<svg width="88" height="64" viewBox="0 0 88 64" fill="none" xmlns="http://www.w3.org/2000/svg">
<path d="M8.3 11.76C9.02 12.0667 9.58 12.5133 9.98 13.1C10.38 13.6867 10.58 14.38 10.58 15.18C10.58 16.38 10.1267 17.36 9.22 18.12C8.32667 18.88 7.14 19.26 5.66 19.26C4.31333 19.26 3.22667 18.96 2.4 18.36C1.58667 17.76 1.01333 16.9867 0.68 16.04L2.26 15.14C2.67333 16.7133 3.80667 17.5 5.66 17.5C6.63333 17.5 7.38667 17.2867 7.92 16.86C8.45333 16.42 8.72 15.84 8.72 15.12C8.72 14.4 8.46667 13.82 7.96 13.38C7.46667 12.94 6.77333 12.72 5.88 12.72H4.24V11.02H5.42C6.27333 11.02 6.95333 10.8133 7.46 10.4C7.96667 9.97333 8.22 9.42 8.22 8.74C8.22 8.07333 7.98 7.53333 7.5 7.12C7.03333 6.69333 6.38 6.48 5.54 6.48C3.99333 6.48 2.96 7.16667 2.44 8.54L0.88 7.64C1.72 5.70667 3.27333 4.74 5.54 4.74C6.88667 4.74 7.97333 5.11333 8.8 5.86C9.64 6.60667 10.06 7.55333 10.06 8.7C10.06 10.0333 9.47333 11.0533 8.3 11.76ZM22.0091 19L20.8691 15.86H14.5691L13.4291 19H11.4491L16.6691 5H18.7691L23.9891 19H22.0091ZM15.2091 14.12H20.2291L17.7091 7.22L15.2091 14.12ZM30.9006 10.5C32.114 10.5 33.1406 10.9133 33.9806 11.74C34.8206 12.5533 35.2406 13.5533 35.2406 14.74C35.2406 15.9533 34.8206 16.9667 33.9806 17.78C33.154 18.5933 32.1273 19 30.9006 19H25.6406V5H34.0406V6.76H27.5006V10.5H30.9006ZM30.9006 17.26C31.594 17.26 32.1806 17.02 32.6606 16.54C33.154 16.06 33.4006 15.46 33.4006 14.74C33.4006 14.0333 33.154 13.44 32.6606 12.96C32.1806 12.48 31.594 12.24 30.9006 12.24H27.5006V17.26H30.9006ZM48.8822 17.14C47.4822 18.5533 45.7689 19.26 43.7422 19.26C41.7155 19.26 40.0022 18.5533 38.6022 17.14C37.2022 15.7267 36.5022 14.0133 36.5022 12C36.5022 9.97333 37.2022 8.26 38.6022 6.86C40.0022 5.44667 41.7155 4.74 43.7422 4.74C45.7689 4.74 47.4822 5.44667 48.8822 6.86C50.2955 8.26 51.0022 9.97333 51.0022 12C51.0022 14.0133 50.2955 15.7267 48.8822 17.14ZM39.8822 15.88C40.9222 16.92 42.2089 17.44 43.7422 17.44C45.2755 17.44 46.5555 16.92 47.5822 15.88C48.6222 14.8267 49.1422 13.5333 49.1422 12C49.1422 10.4533 48.6222 9.16 47.5822 8.12C46.5555 7.06667 45.2755 6.54 43.7422 6.54C42.2089 6.54 40.9222 7.06667 39.8822 8.12C38.8555 9.16 38.3422 10.4533 38.3422 12C38.3422 13.5333 38.8555 14.8267 39.8822 15.88ZM61.3975 5V6.76H57.2575V19H55.4175V6.76H51.2975V5H61.3975ZM71.9383 19V8.56L64.7383 19H63.2383V5H65.0983V15.46L72.2983 5H73.7983V19H71.9383ZM86.973 19H84.693L78.653 12.28V19H76.793V5H78.653V11.32L84.493 5H86.773L80.593 11.8L86.973 19Z" fill="#8771A7"/>
<path d="M79.5321 34.2333L58.0968 40.5681C57.9118 39.2436 57.3889 37.9891 56.5785 36.9253C55.768 35.8615 54.6973 35.0243 53.4695 34.4943C53.1535 34.444 35.5169 26.7428 35.1898 26.6846C32.9503 26.0028 30.5948 25.7875 28.2688 26.052C25.9428 26.3165 23.6957 27.0551 21.6664 28.2223L0.786112 40.2772C0.424995 40.4857 0.161494 40.8292 0.0535741 41.2319C-0.0543459 41.6347 0.00215406 42.0639 0.210646 42.425L9.09892 57.8211C9.21657 58.0257 9.37892 58.2011 9.57385 58.3343C9.76878 58.4674 9.99126 58.5548 10.2247 58.5899L42.8596 63.5474C47.3151 64.2344 51.8735 63.4768 55.8673 61.3855L84.4786 46.48C85.927 45.7092 87.0388 44.4297 87.5997 42.8879C88.1607 41.3462 88.1312 39.6513 87.5168 38.13C86.9024 36.6088 85.7467 35.3687 84.2724 34.6489C82.7981 33.9291 81.1095 33.7821 79.5321 34.2333ZM83.0258 43.6907L54.4145 58.5962C51.0118 60.3787 47.1278 61.025 43.3313 60.4405L11.4448 55.5947L3.72004 42.2143L23.2387 30.9471C24.8817 30.001 26.7002 29.3996 28.5833 29.1795C30.4664 28.9595 32.3746 29.1255 34.1914 29.6673L52.2337 37.3842C53.2351 37.8274 54.0466 38.6117 54.5239 39.5974C55.0011 40.583 55.1131 41.7061 54.8398 42.7665C54.5665 43.827 53.9258 44.756 53.0316 45.3883C52.1374 46.0205 51.0479 46.3149 49.957 46.219L37.5247 44.9674C37.3193 44.9468 37.1118 44.9668 36.9141 45.0263C36.7164 45.0859 36.5323 45.1838 36.3724 45.3145C36.2126 45.4451 36.08 45.606 35.9823 45.7879C35.8846 45.9698 35.8237 46.1692 35.803 46.3746C35.7824 46.5801 35.8024 46.7876 35.862 46.9853C35.9215 47.183 36.0194 47.3671 36.1501 47.5269C36.2808 47.6868 36.4416 47.8194 36.6235 47.9171C36.8054 48.0148 37.0048 48.0757 37.2103 48.0963L49.6441 49.3479C51.424 49.5305 53.2121 49.0901 54.7036 48.1018C56.1951 47.1135 57.2977 45.6384 57.8233 43.9281L80.4236 37.249C81.2518 37.0171 82.1363 37.0988 82.908 37.4782C83.6798 37.8577 84.2845 38.5083 84.6066 39.3057C84.9287 40.1031 84.9455 40.9912 84.6539 41.8002C84.3623 42.6092 83.7826 43.2823 83.0258 43.6907Z" fill="#8771A7"/>
<path d="M61.511 36.0937H62.9566C63.4836 36.0932 63.989 35.8837 64.3616 35.511C64.7343 35.1384 64.9439 34.633 64.9443 34.106V31.7573H67.293C67.82 31.7569 68.3253 31.5473 68.698 31.1747C69.0707 30.802 69.2802 30.2967 69.2806 29.7697V28.3235C69.2801 27.7965 69.0704 27.2914 68.6978 26.9188C68.3251 26.5463 67.8199 26.3368 67.293 26.3363H64.9443V23.9871C64.9437 23.4602 64.7341 22.955 64.3614 22.5825C63.9888 22.2099 63.4836 22.0004 62.9566 22H61.5115C60.9846 22.0004 60.4793 22.2099 60.1067 22.5825C59.734 22.955 59.5244 23.4602 59.5239 23.9871V26.3363H57.1752C56.6482 26.3368 56.143 26.5463 55.7703 26.9188C55.3977 27.2914 55.1881 27.7965 55.1875 28.3235V29.7691C55.1879 30.2961 55.3975 30.8015 55.7702 31.1741C56.1428 31.5468 56.6481 31.7564 57.1752 31.7568H59.5239V34.1055C59.5243 34.6325 59.7338 35.1378 60.1065 35.5105C60.4792 35.8832 60.9845 36.0927 61.5115 36.0931L61.511 36.0937ZM57.1746 30.6732C56.9352 30.6728 56.7056 30.5775 56.5364 30.4081C56.3671 30.2387 56.2719 30.0091 56.2716 29.7697V28.3235C56.2719 28.084 56.3672 27.8544 56.5366 27.6851C56.706 27.5158 56.9357 27.4206 57.1752 27.4204H60.0659C60.2097 27.4204 60.3475 27.3633 60.4492 27.2617C60.5508 27.16 60.6079 27.0222 60.6079 26.8784V23.9871C60.6082 23.7476 60.7035 23.518 60.8729 23.3487C61.0424 23.1794 61.272 23.0842 61.5115 23.0841H62.9566C63.1961 23.0842 63.4258 23.1794 63.5952 23.3487C63.7646 23.518 63.8599 23.7476 63.8602 23.9871V26.8784C63.8602 27.0222 63.9173 27.16 64.019 27.2617C64.1206 27.3633 64.2585 27.4204 64.4022 27.4204H67.293C67.5325 27.4206 67.7621 27.5158 67.9315 27.6851C68.101 27.8544 68.1963 28.084 68.1966 28.3235V29.7691C68.1963 30.0087 68.101 30.2383 67.9316 30.4077C67.7622 30.5771 67.5325 30.6724 67.293 30.6727H64.4022C64.2585 30.6727 64.1206 30.7298 64.019 30.8315C63.9173 30.9331 63.8602 31.071 63.8602 31.2147V34.1055C63.8599 34.345 63.7646 34.5747 63.5952 34.7441C63.4258 34.9135 63.1962 35.0088 62.9566 35.009H61.5115C61.2721 35.0088 61.0425 34.9135 60.8731 34.7443C60.7037 34.575 60.6084 34.3455 60.6079 34.106V31.2153C60.6079 31.0715 60.5508 30.9337 60.4492 30.832C60.3475 30.7303 60.2097 30.6732 60.0659 30.6732H57.1746Z" fill="#8771A7"/>
</svg>
