<svg width="42" height="35" viewBox="0 0 42 35" fill="none" xmlns="http://www.w3.org/2000/svg">
<path d="M15.7414 23.1601C15.558 23.0173 14.1032 21.9138 10.0672 21.6452C9.84517 21.6267 9.62146 21.469 9.4243 21.3363C9.17339 21.1688 8.91274 20.9929 8.72262 20.7662C8.4136 20.3962 8.06461 20.0852 7.77138 19.6745C5.80911 16.9301 3.88615 16.3792 3.59862 16.2703C3.21571 16.085 1.74888 16.3131 2.45358 17.2943C2.49825 17.3017 4.69732 20.4006 4.84007 20.6482C5.09266 21.0856 5.37851 21.2642 5.64688 21.5715C5.89208 21.8518 6.16348 22.1096 6.41405 22.3848C6.41405 22.3848 5.00768 21.5496 4.67078 21.184C4.52064 21.0202 4.44843 20.785 4.32885 20.5903C4.1896 20.3666 4.04433 20.1467 3.8932 19.9309C3.70681 19.6599 3.51452 19.3931 3.31648 19.1306C3.06187 18.7981 2.79753 18.4726 2.5352 18.1454C2.37196 17.9419 2.18755 17.7455 2.05286 17.5332C1.3878 16.4792 2.14724 15.8488 2.87008 15.7693C2.83515 15.648 2.50262 12.4608 2.44451 11.9258C2.27858 10.3893 2.11466 9.25112 1.23665 8.94147C1.01026 8.86127 0.850375 8.88823 0.681758 9.06681C0.48224 9.27706 0.363335 10.393 0.305898 11.0986C0.305898 11.0986 -0.0780242 14.8845 0.0143454 16.6511C0.0637212 17.5986 2.99772 24.1164 3.8408 25.1235C4.68321 26.1303 11.2771 29.9435 11.2771 29.9435C11.4974 30.1275 12.7184 31.0706 12.7184 32.3071V34.9919L19.8271 35L19.8332 32.5363C19.8496 32.0811 19.9269 31.6285 19.9813 31.1747C20.1362 30.6568 20.0122 29.6783 19.94 29.2982C19.1144 25.6016 16.0739 23.4179 15.7414 23.1601ZM41.6949 11.0979C41.6371 10.392 41.5186 9.27639 41.319 9.06614C41.1504 8.88756 40.9902 8.8606 40.7638 8.94079C39.8868 9.25078 39.7219 10.389 39.5563 11.9251C39.4978 12.4602 39.1657 15.6473 39.1304 15.7686C39.8529 15.8481 40.613 16.4786 39.9476 17.5325C39.8133 17.7455 39.6292 17.9416 39.4656 18.1451C39.2033 18.4719 38.9386 18.7974 38.684 19.1296C38.4858 19.392 38.2937 19.6588 38.1076 19.9299C37.9563 20.1456 37.8109 20.3655 37.6716 20.5893C37.5527 20.784 37.4805 21.0185 37.3293 21.1833C36.9921 21.5496 35.5861 22.3845 35.5861 22.3845C35.8367 22.1089 36.1087 21.8508 36.3536 21.5704C36.622 21.2638 36.9075 21.0849 37.1601 20.6472C37.3035 20.3999 39.5026 17.301 39.5466 17.2936C40.2516 16.3124 38.7841 16.0843 38.4015 16.2696C38.1143 16.3781 36.1913 16.9294 34.2287 19.6735C33.9359 20.0842 33.5865 20.3962 33.2775 20.7655C33.0877 20.9929 32.8264 21.1681 32.5755 21.3356C32.3783 21.468 32.1546 21.6257 31.9326 21.6442C27.8966 21.9131 26.4422 23.0169 26.2584 23.1598C25.9262 23.4179 22.8858 25.6006 22.0598 29.2969C21.9872 29.677 21.8636 30.6555 22.0185 31.1733C22.0729 31.6272 22.1505 32.0797 22.1666 32.5349L22.1727 34.9987L29.2814 34.9906V32.3058C29.2814 31.0692 30.5024 30.1261 30.7227 29.9421C30.7227 29.9421 37.3162 26.13 38.159 25.1222C39.0021 24.1154 41.9354 17.5975 41.9855 16.6497C42.0785 14.8838 41.6949 11.0979 41.6949 11.0979ZM25.2847 19.5195C28.657 16.337 32.8435 12.386 33.4189 8.8697C33.8223 6.38306 33.4276 4.33343 32.246 2.77742C31.0526 1.20659 29.2378 0.309988 26.6961 0.0360531C26.467 0.0123739 26.2368 0.000340743 26.0065 0C24.2085 0 22.3937 0.671865 21.0007 1.80635C19.6081 0.671865 17.7927 0 15.9953 0C15.7736 0 15.5509 0.0114562 15.3057 0.0360531C12.764 0.309651 10.9482 1.20659 9.75548 2.77742C8.57315 4.33343 8.17882 6.38306 8.58256 8.8697C9.1576 12.3864 13.3441 16.3374 16.7165 19.5195C16.7165 19.5195 18.3986 21.2126 18.9041 21.6473C19.284 21.9748 20.1083 22.6342 21.0007 22.6342C21.8935 22.6342 22.7178 21.9748 23.0977 21.6473C23.6029 21.2129 25.2847 19.5195 25.2847 19.5195ZM16.7185 4.19528C14.5701 4.19528 12.8218 5.75499 12.8218 7.6722C12.8218 7.95155 12.7112 8.21946 12.5143 8.41699C12.3174 8.61452 12.0503 8.72549 11.7718 8.72549C11.4934 8.72549 11.2263 8.61452 11.0294 8.41699C10.8325 8.21946 10.7218 7.95155 10.7218 7.6722C10.7218 4.59321 13.4116 2.08871 16.7185 2.08871C16.997 2.08871 17.264 2.19968 17.4609 2.39721C17.6578 2.59474 17.7685 2.86265 17.7685 3.142C17.7685 3.42135 17.6578 3.68925 17.4609 3.88678C17.264 4.08431 16.997 4.19528 16.7185 4.19528Z" fill="url(#paint0_linear_712_357)"/>
<defs>
<linearGradient id="paint0_linear_712_357" x1="0" y1="17.5" x2="42" y2="17.5" gradientUnits="userSpaceOnUse">
<stop stop-color="#A6C0FE"/>
<stop offset="1" stop-color="#F68084"/>
</linearGradient>
</defs>
</svg>
