<svg width="227" height="42" viewBox="0 0 227 42" fill="none" xmlns="http://www.w3.org/2000/svg">
<path d="M15.7414 23.1601C15.558 23.0173 14.1032 21.9138 10.0672 21.6452C9.84517 21.6267 9.62146 21.469 9.4243 21.3363C9.17339 21.1688 8.91274 20.9929 8.72262 20.7662C8.4136 20.3962 8.06461 20.0852 7.77138 19.6745C5.80911 16.9301 3.88615 16.3792 3.59862 16.2703C3.21571 16.085 1.74888 16.3131 2.45358 17.2943C2.49825 17.3017 4.69732 20.4006 4.84007 20.6482C5.09266 21.0856 5.37851 21.2642 5.64688 21.5715C5.89208 21.8518 6.16348 22.1096 6.41405 22.3848C6.41405 22.3848 5.00768 21.5496 4.67078 21.184C4.52064 21.0202 4.44843 20.785 4.32885 20.5903C4.1896 20.3666 4.04433 20.1467 3.8932 19.9309C3.70681 19.6599 3.51452 19.3931 3.31648 19.1306C3.06187 18.7981 2.79753 18.4726 2.5352 18.1454C2.37196 17.9419 2.18755 17.7455 2.05286 17.5332C1.3878 16.4792 2.14724 15.8488 2.87008 15.7693C2.83515 15.648 2.50262 12.4608 2.44451 11.9258C2.27858 10.3893 2.11466 9.25112 1.23665 8.94147C1.01026 8.86127 0.850375 8.88823 0.681758 9.06681C0.48224 9.27706 0.363335 10.393 0.305898 11.0986C0.305898 11.0986 -0.0780242 14.8845 0.0143454 16.6511C0.0637212 17.5986 2.99772 24.1164 3.8408 25.1235C4.68321 26.1303 11.2771 29.9435 11.2771 29.9435C11.4974 30.1275 12.7184 31.0706 12.7184 32.3071V34.9919L19.8271 35L19.8332 32.5363C19.8496 32.0811 19.9269 31.6285 19.9813 31.1747C20.1362 30.6568 20.0122 29.6783 19.94 29.2982C19.1144 25.6016 16.0739 23.4179 15.7414 23.1601ZM41.6949 11.0979C41.6371 10.392 41.5186 9.27639 41.319 9.06614C41.1504 8.88756 40.9902 8.8606 40.7638 8.94079C39.8868 9.25078 39.7219 10.389 39.5563 11.9251C39.4978 12.4602 39.1657 15.6473 39.1304 15.7686C39.8529 15.8481 40.613 16.4786 39.9476 17.5325C39.8133 17.7455 39.6292 17.9416 39.4656 18.1451C39.2033 18.4719 38.9386 18.7974 38.684 19.1296C38.4858 19.392 38.2937 19.6588 38.1076 19.9299C37.9563 20.1456 37.8109 20.3655 37.6716 20.5893C37.5527 20.784 37.4805 21.0185 37.3293 21.1833C36.9921 21.5496 35.5861 22.3845 35.5861 22.3845C35.8367 22.1089 36.1087 21.8508 36.3536 21.5704C36.622 21.2638 36.9075 21.0849 37.1601 20.6472C37.3035 20.3999 39.5026 17.301 39.5466 17.2936C40.2516 16.3124 38.7841 16.0843 38.4015 16.2696C38.1143 16.3781 36.1913 16.9294 34.2287 19.6735C33.9359 20.0842 33.5865 20.3962 33.2775 20.7655C33.0877 20.9929 32.8264 21.1681 32.5755 21.3356C32.3783 21.468 32.1546 21.6257 31.9326 21.6442C27.8966 21.9131 26.4422 23.0169 26.2584 23.1598C25.9262 23.4179 22.8858 25.6006 22.0598 29.2969C21.9872 29.677 21.8636 30.6555 22.0185 31.1733C22.0729 31.6272 22.1505 32.0797 22.1666 32.5349L22.1727 34.9987L29.2814 34.9906V32.3058C29.2814 31.0692 30.5024 30.1261 30.7227 29.9421C30.7227 29.9421 37.3162 26.13 38.159 25.1222C39.0021 24.1154 41.9354 17.5975 41.9855 16.6497C42.0785 14.8838 41.6949 11.0979 41.6949 11.0979ZM25.2847 19.5195C28.657 16.337 32.8435 12.386 33.4189 8.8697C33.8223 6.38306 33.4276 4.33343 32.246 2.77742C31.0526 1.20659 29.2378 0.309988 26.6961 0.0360531C26.467 0.0123739 26.2368 0.000340743 26.0065 0C24.2085 0 22.3937 0.671865 21.0007 1.80635C19.6081 0.671865 17.7927 0 15.9953 0C15.7736 0 15.5509 0.0114562 15.3057 0.0360531C12.764 0.309651 10.9482 1.20659 9.75548 2.77742C8.57315 4.33343 8.17882 6.38306 8.58256 8.8697C9.1576 12.3864 13.3441 16.3374 16.7165 19.5195C16.7165 19.5195 18.3986 21.2126 18.9041 21.6473C19.284 21.9748 20.1083 22.6342 21.0007 22.6342C21.8935 22.6342 22.7178 21.9748 23.0977 21.6473C23.6029 21.2129 25.2847 19.5195 25.2847 19.5195ZM16.7185 4.19528C14.5701 4.19528 12.8218 5.75499 12.8218 7.6722C12.8218 7.95155 12.7112 8.21946 12.5143 8.41699C12.3174 8.61452 12.0503 8.72549 11.7718 8.72549C11.4934 8.72549 11.2263 8.61452 11.0294 8.41699C10.8325 8.21946 10.7218 7.95155 10.7218 7.6722C10.7218 4.59321 13.4116 2.08871 16.7185 2.08871C16.997 2.08871 17.264 2.19968 17.4609 2.39721C17.6578 2.59474 17.7685 2.86265 17.7685 3.142C17.7685 3.42135 17.6578 3.68925 17.4609 3.88678C17.264 4.08431 16.997 4.19528 16.7185 4.19528Z" fill="url(#paint0_linear_801_657)"/>
<path d="M83.5625 26.0938C83.5625 25.9271 83.7396 25.5417 84.0938 24.9375C84.4479 24.3229 84.7083 24.0156 84.875 24.0156C85 24.0156 85.1823 24.1615 85.4219 24.4531C86.1719 25.4531 86.9062 26.1615 87.625 26.5781C88.3542 26.9948 89.4427 27.2031 90.8906 27.2031C92.6198 27.2031 93.8333 26.7917 94.5312 25.9688C95.2396 25.1354 95.5938 24.0885 95.5938 22.8281C95.5938 19.9219 93.9531 18.4688 90.6719 18.4688H88.6875C88.3021 18.4688 88.0729 18.4062 88 18.2812C87.9271 18.1562 87.8906 17.7708 87.8906 17.125C87.8906 16.8021 87.9531 16.6042 88.0781 16.5312C88.2031 16.4583 88.4792 16.4219 88.9062 16.4219H90.2812C93.3333 16.4219 94.8594 15.0677 94.8594 12.3594C94.8594 10.9115 94.5521 9.92188 93.9375 9.39062C93.3229 8.84896 92.3385 8.57812 90.9844 8.57812C90.0052 8.57812 89.1406 8.73438 88.3906 9.04688C87.651 9.35938 87.1198 9.70833 86.7969 10.0938C86.474 10.4688 86.1771 10.8125 85.9062 11.125C85.6458 11.4375 85.4531 11.5938 85.3281 11.5938C85.1823 11.5938 85.0208 11.4427 84.8438 11.1406C84.2083 10.0573 83.8906 9.4375 83.8906 9.28125C83.8906 9 84.3385 8.54167 85.2344 7.90625C86.1302 7.27083 87.0469 6.8125 87.9844 6.53125C88.901 6.27083 89.9583 6.14583 91.1562 6.15625C92.2396 6.15625 93.1719 6.22917 93.9531 6.375C94.7344 6.52083 95.4844 6.79688 96.2031 7.20312C96.9323 7.60938 97.4896 8.24479 97.875 9.10938C98.2604 9.97396 98.4531 11.0573 98.4531 12.3594C98.4531 15.0052 96.8385 16.6927 93.6094 17.4219C94.0156 17.4844 94.3854 17.5573 94.7188 17.6406C95.0521 17.724 95.5208 17.9062 96.125 18.1875C96.7396 18.4583 97.25 18.776 97.6562 19.1406C98.0729 19.5052 98.4479 20.0208 98.7812 20.6875C99.1146 21.3438 99.2812 22.0885 99.2812 22.9219C99.2812 23.6927 99.1615 24.4323 98.9219 25.1406C98.6927 25.8385 98.2917 26.5469 97.7188 27.2656C97.1562 27.974 96.2917 28.5469 95.125 28.9844C93.9688 29.4219 92.5781 29.6406 90.9531 29.6406C89.3385 29.6406 88.0573 29.4479 87.1094 29.0625C86.1615 28.6771 85.2135 28.0156 84.2656 27.0781C83.7969 26.6094 83.5625 26.2812 83.5625 26.0938ZM101.719 28.2031C101.719 28.2031 101.76 28.0312 101.844 27.6875L108.016 7.96875C108.276 7.17708 108.885 6.78646 109.844 6.79688H111.672C111.974 6.79688 112.208 6.80729 112.375 6.82812C112.542 6.84896 112.734 6.95833 112.953 7.15625C113.182 7.34375 113.359 7.63021 113.484 8.01562L119.672 27.75C119.755 27.9896 119.797 28.1406 119.797 28.2031C119.797 28.7344 119.391 29 118.578 29H117.484C116.828 29 116.385 28.8802 116.156 28.6406C115.938 28.3906 115.688 27.8281 115.406 26.9531L114.359 23.5312H106.609L105.266 27.7188C105.182 28.0208 105.094 28.2448 105 28.3906C104.917 28.5365 104.745 28.6771 104.484 28.8125C104.234 28.9375 103.885 29 103.438 29H102.938C102.125 29 101.719 28.7344 101.719 28.2031ZM107.344 21.125H113.625L111.828 15.2031C111.036 12.5781 110.589 10.9062 110.484 10.1875H110.453C110.349 10.9167 109.932 12.5052 109.203 14.9531L107.344 21.125ZM123.5 27.5625V8.23438C123.5 7.95312 123.51 7.73958 123.531 7.59375C123.552 7.44792 123.661 7.28125 123.859 7.09375C124.068 6.89583 124.375 6.79688 124.781 6.79688H136.578C137.411 6.79688 137.828 7.24479 137.828 8.14062C137.828 8.40104 137.823 8.58333 137.812 8.6875C137.802 8.79167 137.766 8.94792 137.703 9.15625C137.641 9.35417 137.505 9.49479 137.297 9.57812C137.099 9.66146 136.839 9.70312 136.516 9.70312C136.276 9.70312 134.844 9.68229 132.219 9.64062C129.604 9.59896 127.943 9.57812 127.234 9.57812V16.1719H131.875C133.156 16.1719 134.281 16.3281 135.25 16.6406C136.229 16.9427 136.979 17.3177 137.5 17.7656C138.021 18.2135 138.438 18.75 138.75 19.375C139.073 19.9896 139.281 20.5521 139.375 21.0625C139.479 21.5729 139.531 22.0938 139.531 22.625C139.531 23.375 139.432 24.0781 139.234 24.7344C139.047 25.3802 138.698 26.0521 138.188 26.75C137.677 27.4375 136.87 27.9844 135.766 28.3906C134.672 28.7969 133.333 29 131.75 29H124.781C124.396 29 124.099 28.9062 123.891 28.7188C123.693 28.5208 123.578 28.3438 123.547 28.1875C123.516 28.0312 123.5 27.8229 123.5 27.5625ZM127.234 26.5625H130.922C130.943 26.5625 130.99 26.5677 131.062 26.5781C131.135 26.5885 131.193 26.5938 131.234 26.5938C132.13 26.5938 132.901 26.4688 133.547 26.2188C134.203 25.9583 134.688 25.6146 135 25.1875C135.312 24.7604 135.536 24.3385 135.672 23.9219C135.807 23.5052 135.875 23.0729 135.875 22.625C135.875 20.0208 134.234 18.724 130.953 18.7344C130.911 18.7344 130.839 18.7396 130.734 18.75C130.641 18.7604 130.573 18.7656 130.531 18.7656H127.234V26.5625ZM142.953 18.0625C142.953 14.5833 143.656 11.7969 145.062 9.70312C145.833 8.56771 146.859 7.69792 148.141 7.09375C149.432 6.48958 150.849 6.1875 152.391 6.1875C155.807 6.1875 158.344 7.52083 160 10.1875C161.219 12.125 161.828 14.75 161.828 18.0625C161.828 21.8333 160.984 24.7135 159.297 26.7031C157.651 28.6406 155.349 29.6094 152.391 29.6094C149.443 29.6094 147.167 28.6823 145.562 26.8281C143.823 24.8073 142.953 21.8854 142.953 18.0625ZM146.844 17.5469C146.844 20.3177 147.167 22.4583 147.812 23.9688C148.344 25.2292 149.036 26.099 149.891 26.5781C150.745 27.0573 151.578 27.2969 152.391 27.2969C153.203 27.2969 154.031 27.0573 154.875 26.5781C155.729 26.099 156.427 25.2448 156.969 24.0156C157.604 22.5052 157.922 20.349 157.922 17.5469C157.922 14.7344 157.557 12.6198 156.828 11.2031C155.87 9.34896 154.391 8.42188 152.391 8.42188C150.453 8.42188 149 9.29688 148.031 11.0469C147.24 12.4323 146.844 14.599 146.844 17.5469ZM164.656 8.20312C164.656 8.01562 164.661 7.86979 164.672 7.76562C164.682 7.65104 164.724 7.50521 164.797 7.32812C164.87 7.14062 165 7.00521 165.188 6.92188C165.385 6.83854 165.646 6.79688 165.969 6.79688H181.672C182.224 6.79688 182.589 6.91667 182.766 7.15625C182.953 7.38542 183.047 7.72396 183.047 8.17188C183.047 8.78646 182.943 9.19271 182.734 9.39062C182.536 9.57812 182.193 9.67188 181.703 9.67188H181.484C180.182 9.65104 179.089 9.63542 178.203 9.625C177.318 9.61458 176.734 9.60417 176.453 9.59375C176.182 9.58333 175.969 9.57812 175.812 9.57812V27.5625C175.812 27.8438 175.797 28.0625 175.766 28.2188C175.734 28.375 175.615 28.5469 175.406 28.7344C175.208 28.9115 174.906 29 174.5 29H173.391C173.026 29 172.729 28.9635 172.5 28.8906C172.281 28.8177 172.13 28.6979 172.047 28.5312C171.964 28.3542 171.911 28.2031 171.891 28.0781C171.88 27.9427 171.875 27.75 171.875 27.5V9.57812C169.062 9.64062 167.083 9.67188 165.938 9.67188C165.635 9.67188 165.385 9.63021 165.188 9.54688C165 9.46354 164.875 9.33333 164.812 9.15625C164.75 8.96875 164.708 8.81771 164.688 8.70312C164.667 8.57812 164.656 8.41146 164.656 8.20312ZM186.719 27.5938V8.10938C186.719 7.86979 186.734 7.67188 186.766 7.51562C186.797 7.34896 186.922 7.1875 187.141 7.03125C187.37 6.875 187.688 6.79688 188.094 6.79688H188.984C189.13 6.79688 189.255 6.80729 189.359 6.82812C189.474 6.84896 189.615 6.89583 189.781 6.96875C189.958 7.04167 190.089 7.17708 190.172 7.375C190.255 7.5625 190.297 7.81771 190.297 8.14062V23.875C190.297 23.9792 190.292 24.1406 190.281 24.3594C190.271 24.5781 190.266 24.7396 190.266 24.8438C190.266 24.9271 190.271 25.0677 190.281 25.2656C190.292 25.4531 190.297 25.599 190.297 25.7031C190.339 25.2135 190.495 24.5677 190.766 23.7656C191.036 22.9635 191.479 21.8646 192.094 20.4688C192.708 19.0729 193.177 18.0469 193.5 17.3906C193.823 16.724 194.422 15.4635 195.297 13.6094C196.943 10.151 197.88 8.23958 198.109 7.875C198.516 7.21875 198.984 6.86979 199.516 6.82812C199.641 6.80729 199.792 6.79688 199.969 6.79688H201.406C201.833 6.79688 202.151 6.89583 202.359 7.09375C202.578 7.28125 202.698 7.44271 202.719 7.57812C202.74 7.71354 202.75 7.92188 202.75 8.20312V27.6875C202.75 28.5625 202.302 29 201.406 29H200.547C200.286 29 200.078 28.9844 199.922 28.9531C199.776 28.9219 199.62 28.8021 199.453 28.5938C199.286 28.375 199.203 28.0625 199.203 27.6562V10.9531C199.203 10.8698 199.198 10.7344 199.188 10.5469C199.177 10.349 199.172 10.1979 199.172 10.0938C199.13 10.4583 199.021 10.9375 198.844 11.5312C198.677 12.125 198.401 12.8802 198.016 13.7969C197.63 14.7135 197.281 15.526 196.969 16.2344C196.667 16.9323 196.208 17.9219 195.594 19.2031C194.99 20.4844 194.542 21.4271 194.25 22.0312C193.958 22.625 193.458 23.6406 192.75 25.0781C192.052 26.5156 191.63 27.3958 191.484 27.7188C191.203 28.2708 190.901 28.625 190.578 28.7812C190.266 28.9271 189.854 29 189.344 29H188.062C187.635 29 187.312 28.9062 187.094 28.7188C186.885 28.5208 186.771 28.3542 186.75 28.2188C186.729 28.0833 186.719 27.875 186.719 27.5938ZM207.938 27.5625V8.23438C207.938 7.66146 208.036 7.28125 208.234 7.09375C208.443 6.89583 208.823 6.79688 209.375 6.79688H210.078C210.651 6.79688 211.026 6.90104 211.203 7.10938C211.391 7.30729 211.484 7.67188 211.484 8.20312V17.4531L220.641 7.46875C221.047 7.02083 221.599 6.79688 222.297 6.79688H223.484C224.193 6.79688 224.547 7 224.547 7.40625C224.547 7.55208 224.417 7.76562 224.156 8.04688L216.891 15.9688L224.703 28.1406C224.703 28.4219 224.651 28.625 224.547 28.75C224.443 28.875 224.328 28.9479 224.203 28.9688C224.089 28.9896 223.891 29 223.609 29H222.375C221.948 29 221.646 28.9635 221.469 28.8906C221.302 28.8177 221.109 28.6094 220.891 28.2656L214.594 18.4688L211.484 21.8594V27.5938C211.484 28.1458 211.385 28.5208 211.188 28.7188C211 28.9062 210.63 29 210.078 29H209.375C208.802 29 208.417 28.901 208.219 28.7031C208.031 28.4948 207.938 28.1146 207.938 27.5625Z" fill="#8771A7"/>
<line x1="62.5" y1="2.18557e-08" x2="62.5" y2="35" stroke="url(#paint1_linear_801_657)"/>
<defs>
<linearGradient id="paint0_linear_801_657" x1="0" y1="17.5" x2="42" y2="17.5" gradientUnits="userSpaceOnUse">
<stop stop-color="#A6C0FE"/>
<stop offset="1" stop-color="#F68084"/>
</linearGradient>
<linearGradient id="paint1_linear_801_657" x1="61.5" y1="-2.18557e-08" x2="61.5" y2="35" gradientUnits="userSpaceOnUse">
<stop stop-color="#A18CD1"/>
<stop offset="1" stop-color="#FBC2EB"/>
</linearGradient>
</defs>
</svg>
